<?xml version="1.0" encoding="utf-8"?>
<!-- Generated by IcoMoon.io -->
<!DOCTYPE svg PUBLIC "-//W3C//DTD SVG 1.1//EN" "http://www.w3.org/Graphics/SVG/1.1/DTD/svg11.dtd">
<svg version="1.1" xmlns="http://www.w3.org/2000/svg" xmlns:xlink="http://www.w3.org/1999/xlink" width="25" height="25" viewBox="0 0 25 25">
<path fill="#fff" d="M22.798 14.899c-1.312-2.272-0.523-5.183 1.762-6.506l-2.457-4.255c-0.702 0.411-1.518 0.647-2.389 0.647-2.625 0-4.754-2.142-4.754-4.785h-4.914c0.006 0.816-0.197 1.643-0.634 2.399-1.312 2.272-4.227 3.044-6.515 1.727l-2.457 4.255c0.707 0.402 1.32 0.991 1.755 1.745 1.31 2.268 0.525 5.174-1.751 6.5l2.457 4.255c0.699-0.408 1.512-0.641 2.378-0.641 2.617 0 4.74 2.129 4.753 4.76h4.913c-0.002-0.807 0.202-1.625 0.634-2.373 1.309-2.268 4.218-3.042 6.504-1.734l2.457-4.255c-0.703-0.402-1.311-0.989-1.744-1.739zM12.5 17.562c-2.796 0-5.062-2.266-5.062-5.062s2.266-5.062 5.062-5.062c2.796 0 5.062 2.266 5.062 5.062s-2.266 5.062-5.062 5.062z"></path>
</svg>
